# xmcd
#
# Track frame offsets: 
#        150
#        21546
#        41998
#        64748
#        85828
#        109440
#        133097
#        153549
#        170964
#        188032
#        207555
#        225589
#
# Disc length: 3279 seconds
#
# Revision: 0
# Processed by: cddbd v1.5.2PL0 Copyright (c) Steve Scherf et al.
# Submitted via: ExactAudioCopy v1.3
#
DISCID=b60ccd0c
DTITLE=Dave Steffen Band - Fishing Town
DYEAR=2015
DGENRE=Blues Rock
TTITLE0=Keep To The Highway
TTITLE1=Real Live Lovin' Doll
TTITLE2=Fantasy
TTITLE3=Fishing Town
TTITLE4=You Always Hurt The One You Love
TTITLE5=I Cry For You
TTITLE6=Into The Mystic
TTITLE7=Sing On People
TTITLE8=Good Friends Gather 'Round
TTITLE9=I'll Be There
TTITLE10=So Cold
TTITLE11=Long As I Can See The Light
EXTD=
EXTT0=
EXTT1=
EXTT2=
EXTT3=
EXTT4=
EXTT5=
EXTT6=
EXTT7=
EXTT8=
EXTT9=
EXTT10=
EXTT11=
PLAYORDER=
